<?xml version="1.0" standalone="no"?>
<!DOCTYPE svg PUBLIC "-//W3C//DTD SVG 20010904//EN"
 "http://www.w3.org/TR/2001/REC-SVG-20010904/DTD/svg10.dtd">
<svg version="1.0" xmlns="http://www.w3.org/2000/svg"
 width="576.000000pt" height="576.000000pt" viewBox="0 0 576.000000 576.000000"
 preserveAspectRatio="xMidYMid meet">
<metadata>
Created by potrace 1.14, written by Peter Selinger 2001-2017
</metadata>
<g transform="translate(0.000000,576.000000) scale(0.100000,-0.100000)"
fill="#000000" stroke="none">
<path d="M219 5103 c-51 -17 -136 -77 -153 -108 -6 -11 -14 -23 -19 -26 -4 -3
-16 -31 -28 -63 -23 -66 -24 -161 -2 -203 7 -14 13 -33 13 -42 0 -10 3 -21 7
-25 4 -3 8 -12 9 -19 2 -10 160 -430 329 -877 24 -63 78 -207 120 -320 82
-219 128 -343 150 -400 8 -19 53 -138 100 -265 47 -126 99 -266 116 -310 17
-44 35 -93 41 -110 5 -16 14 -39 19 -50 4 -11 56 -148 115 -305 313 -840 438
-1168 457 -1195 28 -42 56 -68 106 -100 54 -34 78 -39 171 -39 108 0 169 33
258 139 12 14 38 77 47 115 2 8 20 69 40 135 20 66 37 127 39 135 2 8 21 71
41 138 20 68 38 131 41 140 4 18 21 78 79 272 20 69 38 130 39 135 2 6 11 37
21 70 10 33 20 65 21 70 9 33 17 64 54 190 23 77 43 147 45 155 2 8 8 26 13
40 5 14 10 27 10 30 0 3 3 12 6 20 9 27 58 205 61 223 2 9 7 22 10 27 3 5 8
18 10 27 2 10 26 97 55 193 28 96 52 180 54 185 1 6 8 30 15 55 7 25 38 128
68 230 30 102 56 190 58 195 1 6 6 25 10 43 4 17 11 32 15 32 6 0 22 -46 35
-105 2 -5 11 -37 21 -70 10 -33 19 -64 20 -70 2 -5 21 -73 44 -150 36 -123 52
-177 90 -310 4 -16 25 -84 44 -150 20 -66 38 -127 40 -135 6 -21 62 -217 75
-258 5 -18 10 -33 10 -35 0 -1 2 -9 5 -17 7 -22 47 -160 51 -179 2 -9 13 -45
23 -81 11 -36 46 -153 77 -260 31 -107 74 -253 95 -325 20 -71 40 -139 43
-150 3 -11 17 -60 32 -110 15 -49 29 -98 30 -108 2 -9 7 -22 10 -27 3 -5 8
-18 10 -27 21 -107 79 -268 110 -309 79 -104 229 -148 358 -105 105 35 174
114 220 251 9 25 23 62 31 82 9 21 16 40 17 43 0 2 6 20 14 39 8 20 15 37 15
40 0 3 5 17 12 33 6 15 12 31 13 36 2 4 4 9 5 12 1 3 3 8 5 13 1 4 5 16 10 27
4 11 21 56 37 100 16 44 39 105 51 135 12 30 22 57 22 60 0 5 15 42 40 105 7
17 20 50 28 75 9 25 22 59 28 75 7 17 13 32 13 35 1 3 6 19 13 35 6 17 25 66
41 110 17 44 34 89 38 100 4 11 8 22 9 25 1 3 7 19 14 35 6 17 16 44 22 60 6
17 15 39 19 50 4 11 31 83 60 160 29 77 63 168 77 203 13 35 32 87 41 115 9
29 19 54 22 57 3 3 12 25 20 50 7 25 17 50 21 55 4 6 7 12 8 15 0 7 11 41 21
65 5 11 12 31 16 44 3 13 13 40 22 60 9 20 16 38 17 41 0 3 5 19 12 35 13 33
55 146 103 275 18 47 36 94 40 105 4 11 31 83 60 160 74 198 109 292 133 355
12 30 22 57 22 60 0 5 15 42 40 105 7 17 20 50 28 75 9 25 22 59 28 75 7 17
13 32 13 35 1 3 6 19 13 35 6 17 25 66 41 110 17 44 34 89 38 100 4 11 8 22 9
25 4 11 17 46 25 66 17 44 6 156 -22 216 -27 59 -86 125 -129 144 -13 6 -37
18 -53 25 -18 9 -61 14 -110 13 -99 0 -158 -25 -227 -96 -40 -41 -54 -67 -104
-200 -32 -84 -81 -216 -111 -293 -192 -509 -374 -1001 -374 -1012 0 -7 -4 -13
-10 -13 -5 0 -9 -3 -8 -7 2 -5 -2 -21 -9 -38 -6 -16 -39 -104 -73 -195 -34
-91 -82 -217 -106 -280 -24 -64 -44 -119 -44 -124 0 -4 -6 -22 -14 -39 -8 -18
-38 -95 -66 -172 -28 -77 -56 -149 -60 -160 -5 -11 -43 -112 -85 -225 -42
-113 -80 -214 -84 -225 -5 -11 -12 -29 -15 -39 -8 -23 -15 -17 -21 15 -3 13
-16 62 -30 109 -15 47 -28 94 -30 104 -3 11 -11 40 -19 65 -28 91 -57 189 -61
207 -3 11 -14 51 -25 89 -12 39 -28 95 -36 125 -8 30 -17 62 -21 70 -8 19 -9
23 -27 90 -8 30 -40 141 -71 245 -31 105 -58 197 -60 205 -2 8 -17 60 -33 115
-16 55 -33 114 -37 130 -10 35 -10 36 -18 55 -4 8 -13 40 -21 70 -8 30 -24 87
-36 125 -21 68 -26 87 -34 123 -2 9 -9 28 -14 42 -5 14 -10 28 -10 33 -1 4
-13 47 -28 95 -14 48 -28 98 -31 111 -2 13 -8 31 -12 40 -5 9 -9 18 -9 21 0 3
-6 25 -13 50 -7 25 -13 50 -15 55 -1 6 -16 57 -34 115 -32 106 -37 125 -46
170 -3 14 -9 29 -15 35 -5 5 -9 17 -9 27 0 16 -30 123 -47 168 -3 8 -7 20 -9
27 -9 45 -92 128 -162 164 -69 34 -197 34 -267 -1 -88 -44 -159 -135 -180
-230 -7 -31 -29 -103 -41 -135 -9 -22 -15 -40 -14 -40 1 0 -4 -20 -11 -45 -7
-25 -13 -49 -15 -55 -1 -5 -10 -37 -20 -70 -10 -33 -19 -64 -20 -70 -1 -5 -11
-39 -22 -75 -12 -36 -27 -85 -33 -110 -7 -25 -13 -47 -14 -50 -1 -3 -7 -25
-15 -50 -7 -25 -14 -49 -16 -55 -1 -5 -14 -50 -29 -99 -15 -49 -28 -94 -29
-100 -2 -6 -11 -38 -21 -71 -19 -61 -20 -65 -29 -100 -2 -11 -18 -65 -34 -120
-17 -55 -51 -172 -77 -260 -62 -214 -108 -371 -140 -480 -35 -115 -55 -186
-59 -205 -2 -8 -27 -94 -56 -190 -28 -96 -60 -204 -70 -240 -10 -36 -29 -99
-42 -140 -23 -78 -25 -84 -27 -100 -2 -21 -18 -9 -28 23 -19 55 -54 151 -63
172 -5 11 -37 94 -70 185 -34 91 -72 192 -85 225 -13 33 -44 116 -70 185 -25
69 -49 132 -52 140 -3 8 -7 20 -9 25 -1 6 -14 42 -29 80 -15 39 -40 104 -55
145 -64 173 -243 650 -264 705 -14 33 -29 74 -34 90 -6 17 -34 91 -62 165 -28
74 -60 158 -70 185 -35 96 -138 370 -151 400 -6 17 -13 35 -15 42 -7 33 -69
182 -87 208 -61 90 -146 137 -252 141 -42 1 -88 -4 -116 -13z"/>
</g>
</svg>
